<?xml version="1.0" encoding="utf-8" standalone="no"?>
<!DOCTYPE svg PUBLIC "-//W3C//DTD SVG 1.1//EN"
  "http://www.w3.org/Graphics/SVG/1.1/DTD/svg11.dtd">
<svg xmlns:xlink="http://www.w3.org/1999/xlink" width="152.910869pt" height="207.037275pt" viewBox="0 0 152.910869 207.037275" xmlns="http://www.w3.org/2000/svg" version="1.1">
 <defs>
  <style type="text/css">*{stroke-linejoin: round; stroke-linecap: butt}</style>
 </defs>
 <g id="figure_1">
  <g id="patch_1">
   <path d="M 0 207.037275 
L 152.910869 207.037275 
L 152.910869 0 
L 0 0 
L 0 207.037275 
z
" style="fill: none"/>
  </g>
  <g id="axes_1">
   <g id="patch_2">
    <path d="M 44.681875 165.676625 
L 145.710869 165.676625 
L 145.710869 10.388625 
L 44.681875 10.388625 
L 44.681875 165.676625 
z
" style="fill: none"/>
   </g>
   <g id="matplotlib.axis_1">
    <g id="xtick_1">
     <g id="line2d_1">
      <defs>
       <path id="md938d4616a" d="M 0 0 
L 0 3.5 
" style="stroke: #262626"/>
      </defs>
      <g>
       <use xlink:href="#md938d4616a" x="61.520041" y="165.676625" style="fill: #262626; stroke: #262626"/>
      </g>
     </g>
     <g id="text_1">
      <text style="font-size: 8.8px; font-family: 'Liberation Sans', 'NewComputerModernSans10', sans-serif, 'NewComputerModernMath', serif; fill: #262626" transform="translate(48.559291 179.053875)">high-D</text>
      <text style="font-size: 8.8px; font-family: 'Liberation Sans', 'NewComputerModernSans10', sans-serif, 'NewComputerModernMath', serif; fill: #262626" transform="translate(57.120041 188.532575)">vs</text>
      <text style="font-size: 8.8px; font-family: 'Liberation Sans', 'NewComputerModernSans10', sans-serif, 'NewComputerModernMath', serif; fill: #262626" transform="translate(48.559291 198.011275)">high-D</text>
     </g>
    </g>
    <g id="xtick_2">
     <g id="line2d_2">
      <g>
       <use xlink:href="#md938d4616a" x="95.196372" y="165.676625" style="fill: #262626; stroke: #262626"/>
      </g>
     </g>
     <g id="text_2">
      <text style="font-size: 8.8px; font-family: 'Liberation Sans', 'NewComputerModernSans10', sans-serif, 'NewComputerModernMath', serif; fill: #262626" transform="translate(82.235622 179.053875)">high-D</text>
      <text style="font-size: 8.8px; font-family: 'Liberation Sans', 'NewComputerModernSans10', sans-serif, 'NewComputerModernMath', serif; fill: #262626" transform="translate(90.796372 188.532575)">vs</text>
      <text style="font-size: 8.8px; font-family: 'Liberation Sans', 'NewComputerModernSans10', sans-serif, 'NewComputerModernMath', serif; fill: #262626" transform="translate(83.951622 198.011275)">low-D</text>
     </g>
    </g>
    <g id="xtick_3">
     <g id="line2d_3">
      <g>
       <use xlink:href="#md938d4616a" x="128.872703" y="165.676625" style="fill: #262626; stroke: #262626"/>
      </g>
     </g>
     <g id="text_3">
      <text style="font-size: 8.8px; font-family: 'Liberation Sans', 'NewComputerModernSans10', sans-serif, 'NewComputerModernMath', serif; fill: #262626" transform="translate(117.627953 179.053875)">low-D</text>
      <text style="font-size: 8.8px; font-family: 'Liberation Sans', 'NewComputerModernSans10', sans-serif, 'NewComputerModernMath', serif; fill: #262626" transform="translate(124.472703 188.532575)">vs</text>
      <text style="font-size: 8.8px; font-family: 'Liberation Sans', 'NewComputerModernSans10', sans-serif, 'NewComputerModernMath', serif; fill: #262626" transform="translate(117.627953 198.011275)">low-D</text>
     </g>
    </g>
   </g>
   <g id="matplotlib.axis_2">
    <g id="ytick_1">
     <g id="line2d_4">
      <defs>
       <path id="m473c363e32" d="M 0 0 
L -3.5 0 
" style="stroke: #262626"/>
      </defs>
      <g>
       <use xlink:href="#m473c363e32" x="44.681875" y="165.676625" style="fill: #262626; stroke: #262626"/>
      </g>
     </g>
     <g id="text_4">
      <!-- $\mathdefault{0.00}$ -->
      <g style="fill: #262626" transform="translate(20.521875 168.86525)">
       <text>
        <tspan x="0" y="-0.71875" style="font-size: 8.8px; font-family: 'Liberation Sans'; fill: #262626">0</tspan>
        <tspan x="4.866333" y="-0.71875" style="font-size: 8.8px; font-family: 'Liberation Sans'; fill: #262626">.</tspan>
        <tspan x="7.297363" y="-0.71875" style="font-size: 8.8px; font-family: 'Liberation Sans'; fill: #262626">0</tspan>
        <tspan x="12.163696" y="-0.71875" style="font-size: 8.8px; font-family: 'Liberation Sans'; fill: #262626">0</tspan>
       </text>
      </g>
     </g>
    </g>
    <g id="ytick_2">
     <g id="line2d_5">
      <g>
       <use xlink:href="#m473c363e32" x="44.681875" y="139.795292" style="fill: #262626; stroke: #262626"/>
      </g>
     </g>
     <g id="text_5">
      <!-- $\mathdefault{0.05}$ -->
      <g style="fill: #262626" transform="translate(20.521875 142.983917)">
       <text>
        <tspan x="0" y="-0.71875" style="font-size: 8.8px; font-family: 'Liberation Sans'; fill: #262626">0</tspan>
        <tspan x="4.866333" y="-0.71875" style="font-size: 8.8px; font-family: 'Liberation Sans'; fill: #262626">.</tspan>
        <tspan x="7.297363" y="-0.71875" style="font-size: 8.8px; font-family: 'Liberation Sans'; fill: #262626">0</tspan>
        <tspan x="12.163696" y="-0.71875" style="font-size: 8.8px; font-family: 'Liberation Sans'; fill: #262626">5</tspan>
       </text>
      </g>
     </g>
    </g>
    <g id="ytick_3">
     <g id="line2d_6">
      <g>
       <use xlink:href="#m473c363e32" x="44.681875" y="113.913958" style="fill: #262626; stroke: #262626"/>
      </g>
     </g>
     <g id="text_6">
      <!-- $\mathdefault{0.10}$ -->
      <g style="fill: #262626" transform="translate(20.521875 117.102583)">
       <text>
        <tspan x="0" y="-0.71875" style="font-size: 8.8px; font-family: 'Liberation Sans'; fill: #262626">0</tspan>
        <tspan x="4.866333" y="-0.71875" style="font-size: 8.8px; font-family: 'Liberation Sans'; fill: #262626">.</tspan>
        <tspan x="7.297363" y="-0.71875" style="font-size: 8.8px; font-family: 'Liberation Sans'; fill: #262626">1</tspan>
        <tspan x="12.163696" y="-0.71875" style="font-size: 8.8px; font-family: 'Liberation Sans'; fill: #262626">0</tspan>
       </text>
      </g>
     </g>
    </g>
    <g id="ytick_4">
     <g id="line2d_7">
      <g>
       <use xlink:href="#m473c363e32" x="44.681875" y="88.032625" style="fill: #262626; stroke: #262626"/>
      </g>
     </g>
     <g id="text_7">
      <!-- $\mathdefault{0.15}$ -->
      <g style="fill: #262626" transform="translate(20.521875 91.22125)">
       <text>
        <tspan x="0" y="-0.71875" style="font-size: 8.8px; font-family: 'Liberation Sans'; fill: #262626">0</tspan>
        <tspan x="4.866333" y="-0.71875" style="font-size: 8.8px; font-family: 'Liberation Sans'; fill: #262626">.</tspan>
        <tspan x="7.297363" y="-0.71875" style="font-size: 8.8px; font-family: 'Liberation Sans'; fill: #262626">1</tspan>
        <tspan x="12.163696" y="-0.71875" style="font-size: 8.8px; font-family: 'Liberation Sans'; fill: #262626">5</tspan>
       </text>
      </g>
     </g>
    </g>
    <g id="ytick_5">
     <g id="line2d_8">
      <g>
       <use xlink:href="#m473c363e32" x="44.681875" y="62.151292" style="fill: #262626; stroke: #262626"/>
      </g>
     </g>
     <g id="text_8">
      <!-- $\mathdefault{0.20}$ -->
      <g style="fill: #262626" transform="translate(20.521875 65.339917)">
       <text>
        <tspan x="0" y="-0.71875" style="font-size: 8.8px; font-family: 'Liberation Sans'; fill: #262626">0</tspan>
        <tspan x="4.866333" y="-0.71875" style="font-size: 8.8px; font-family: 'Liberation Sans'; fill: #262626">.</tspan>
        <tspan x="7.297363" y="-0.71875" style="font-size: 8.8px; font-family: 'Liberation Sans'; fill: #262626">2</tspan>
        <tspan x="12.163696" y="-0.71875" style="font-size: 8.8px; font-family: 'Liberation Sans'; fill: #262626">0</tspan>
       </text>
      </g>
     </g>
    </g>
    <g id="ytick_6">
     <g id="line2d_9">
      <g>
       <use xlink:href="#m473c363e32" x="44.681875" y="36.269958" style="fill: #262626; stroke: #262626"/>
      </g>
     </g>
     <g id="text_9">
      <!-- $\mathdefault{0.25}$ -->
      <g style="fill: #262626" transform="translate(20.521875 39.458583)">
       <text>
        <tspan x="0" y="-0.71875" style="font-size: 8.8px; font-family: 'Liberation Sans'; fill: #262626">0</tspan>
        <tspan x="4.866333" y="-0.71875" style="font-size: 8.8px; font-family: 'Liberation Sans'; fill: #262626">.</tspan>
        <tspan x="7.297363" y="-0.71875" style="font-size: 8.8px; font-family: 'Liberation Sans'; fill: #262626">2</tspan>
        <tspan x="12.163696" y="-0.71875" style="font-size: 8.8px; font-family: 'Liberation Sans'; fill: #262626">5</tspan>
       </text>
      </g>
     </g>
    </g>
    <g id="ytick_7">
     <g id="line2d_10">
      <g>
       <use xlink:href="#m473c363e32" x="44.681875" y="10.388625" style="fill: #262626; stroke: #262626"/>
      </g>
     </g>
     <g id="text_10">
      <!-- $\mathdefault{0.30}$ -->
      <g style="fill: #262626" transform="translate(20.521875 13.57725)">
       <text>
        <tspan x="0" y="-0.71875" style="font-size: 8.8px; font-family: 'Liberation Sans'; fill: #262626">0</tspan>
        <tspan x="4.866333" y="-0.71875" style="font-size: 8.8px; font-family: 'Liberation Sans'; fill: #262626">.</tspan>
        <tspan x="7.297363" y="-0.71875" style="font-size: 8.8px; font-family: 'Liberation Sans'; fill: #262626">3</tspan>
        <tspan x="12.163696" y="-0.71875" style="font-size: 8.8px; font-family: 'Liberation Sans'; fill: #262626">0</tspan>
       </text>
      </g>
     </g>
    </g>
    <g id="text_11">
     <text style="font-size: 10px; font-family: 'Liberation Sans', 'NewComputerModernSans10', sans-serif, 'NewComputerModernMath', serif; text-anchor: middle; fill: #262626" x="14.446875" y="88.032625" transform="rotate(-90 14.446875 88.032625)">RSA correlation</text>
    </g>
   </g>
   <g id="LineCollection_1">
    <path d="M 56.468591 62.120271 
L 56.468591 55.402325 
" clip-path="url(#pd5471b9ba8)" style="fill: none; stroke: #5b3495; stroke-width: 1.2"/>
   </g>
   <g id="LineCollection_2">
    <path d="M 66.57149 62.970637 
L 66.57149 56.395055 
" clip-path="url(#pd5471b9ba8)" style="fill: none; stroke: #5b3495; stroke-width: 1.2"/>
   </g>
   <g id="LineCollection_3">
    <path d="M 90.144922 67.411681 
L 90.144922 60.480604 
" clip-path="url(#pd5471b9ba8)" style="fill: none; stroke: #796eb2; stroke-width: 1.2"/>
   </g>
   <g id="LineCollection_4">
    <path d="M 100.247822 68.302891 
L 100.247822 61.402828 
" clip-path="url(#pd5471b9ba8)" style="fill: none; stroke: #796eb2; stroke-width: 1.2"/>
   </g>
   <g id="LineCollection_5">
    <path d="M 123.821254 63.385732 
L 123.821254 56.085122 
" clip-path="url(#pd5471b9ba8)" style="fill: none; stroke: #9e9bc8; stroke-width: 1.2"/>
   </g>
   <g id="LineCollection_6">
    <path d="M 133.924153 64.963653 
L 133.924153 57.607907 
" clip-path="url(#pd5471b9ba8)" style="fill: none; stroke: #9e9bc8; stroke-width: 1.2"/>
   </g>
   <g id="line2d_11">
    <defs>
     <path id="ma8bb78cec9" d="M 0 2.4 
C 0.636487 2.4 1.246992 2.147121 1.697056 1.697056 
C 2.147121 1.246992 2.4 0.636487 2.4 0 
C 2.4 -0.636487 2.147121 -1.246992 1.697056 -1.697056 
C 1.246992 -2.147121 0.636487 -2.4 0 -2.4 
C -0.636487 -2.4 -1.246992 -2.147121 -1.697056 -1.697056 
C -2.147121 -1.246992 -2.4 -0.636487 -2.4 0 
C -2.4 0.636487 -2.147121 1.246992 -1.697056 1.697056 
C -1.246992 2.147121 -0.636487 2.4 0 2.4 
z
"/>
    </defs>
    <g clip-path="url(#pd5471b9ba8)">
     <use xlink:href="#ma8bb78cec9" x="56.468591" y="58.652889" style="fill: #5b3495"/>
    </g>
   </g>
   <g id="line2d_12">
    <defs>
     <path id="mf6c477183e" d="M 0 2.4 
C 0.636487 2.4 1.246992 2.147121 1.697056 1.697056 
C 2.147121 1.246992 2.4 0.636487 2.4 0 
C 2.4 -0.636487 2.147121 -1.246992 1.697056 -1.697056 
C 1.246992 -2.147121 0.636487 -2.4 0 -2.4 
C -0.636487 -2.4 -1.246992 -2.147121 -1.697056 -1.697056 
C -2.147121 -1.246992 -2.4 -0.636487 -2.4 0 
C -2.4 0.636487 -2.147121 1.246992 -1.697056 1.697056 
C -1.246992 2.147121 -0.636487 2.4 0 2.4 
z
" style="stroke: #5b3495"/>
    </defs>
    <g clip-path="url(#pd5471b9ba8)">
     <use xlink:href="#mf6c477183e" x="66.57149" y="59.549368" style="fill-opacity: 0; stroke: #5b3495"/>
    </g>
   </g>
   <g id="line2d_13">
    <defs>
     <path id="m852c9e8efe" d="M 0 2.4 
C 0.636487 2.4 1.246992 2.147121 1.697056 1.697056 
C 2.147121 1.246992 2.4 0.636487 2.4 0 
C 2.4 -0.636487 2.147121 -1.246992 1.697056 -1.697056 
C 1.246992 -2.147121 0.636487 -2.4 0 -2.4 
C -0.636487 -2.4 -1.246992 -2.147121 -1.697056 -1.697056 
C -2.147121 -1.246992 -2.4 -0.636487 -2.4 0 
C -2.4 0.636487 -2.147121 1.246992 -1.697056 1.697056 
C -1.246992 2.147121 -0.636487 2.4 0 2.4 
z
"/>
    </defs>
    <g clip-path="url(#pd5471b9ba8)">
     <use xlink:href="#m852c9e8efe" x="90.144922" y="63.808772" style="fill: #796eb2"/>
    </g>
   </g>
   <g id="line2d_14">
    <defs>
     <path id="mf514dada04" d="M 0 2.4 
C 0.636487 2.4 1.246992 2.147121 1.697056 1.697056 
C 2.147121 1.246992 2.4 0.636487 2.4 0 
C 2.4 -0.636487 2.147121 -1.246992 1.697056 -1.697056 
C 1.246992 -2.147121 0.636487 -2.4 0 -2.4 
C -0.636487 -2.4 -1.246992 -2.147121 -1.697056 -1.697056 
C -2.147121 -1.246992 -2.4 -0.636487 -2.4 0 
C -2.4 0.636487 -2.147121 1.246992 -1.697056 1.697056 
C -1.246992 2.147121 -0.636487 2.4 0 2.4 
z
" style="stroke: #796eb2"/>
    </defs>
    <g clip-path="url(#pd5471b9ba8)">
     <use xlink:href="#mf514dada04" x="100.247822" y="64.757293" style="fill-opacity: 0; stroke: #796eb2"/>
    </g>
   </g>
   <g id="line2d_15">
    <defs>
     <path id="md2dccd790a" d="M 0 2.4 
C 0.636487 2.4 1.246992 2.147121 1.697056 1.697056 
C 2.147121 1.246992 2.4 0.636487 2.4 0 
C 2.4 -0.636487 2.147121 -1.246992 1.697056 -1.697056 
C 1.246992 -2.147121 0.636487 -2.4 0 -2.4 
C -0.636487 -2.4 -1.246992 -2.147121 -1.697056 -1.697056 
C -2.147121 -1.246992 -2.4 -0.636487 -2.4 0 
C -2.4 0.636487 -2.147121 1.246992 -1.697056 1.697056 
C -1.246992 2.147121 -0.636487 2.4 0 2.4 
z
"/>
    </defs>
    <g clip-path="url(#pd5471b9ba8)">
     <use xlink:href="#md2dccd790a" x="123.821254" y="59.617545" style="fill: #9e9bc8"/>
    </g>
   </g>
   <g id="line2d_16">
    <defs>
     <path id="m68308748a8" d="M 0 2.4 
C 0.636487 2.4 1.246992 2.147121 1.697056 1.697056 
C 2.147121 1.246992 2.4 0.636487 2.4 0 
C 2.4 -0.636487 2.147121 -1.246992 1.697056 -1.697056 
C 1.246992 -2.147121 0.636487 -2.4 0 -2.4 
C -0.636487 -2.4 -1.246992 -2.147121 -1.697056 -1.697056 
C -2.147121 -1.246992 -2.4 -0.636487 -2.4 0 
C -2.4 0.636487 -2.147121 1.246992 -1.697056 1.697056 
C -1.246992 2.147121 -0.636487 2.4 0 2.4 
z
" style="stroke: #9e9bc8"/>
    </defs>
    <g clip-path="url(#pd5471b9ba8)">
     <use xlink:href="#m68308748a8" x="133.924153" y="61.1855" style="fill-opacity: 0; stroke: #9e9bc8"/>
    </g>
   </g>
   <g id="patch_3">
    <path d="M 44.681875 165.676625 
L 44.681875 10.388625 
" style="fill: none; stroke: #262626; stroke-linejoin: miter; stroke-linecap: square"/>
   </g>
   <g id="patch_4">
    <path d="M 44.681875 165.676625 
L 145.710869 165.676625 
" style="fill: none; stroke: #262626; stroke-linejoin: miter; stroke-linecap: square"/>
   </g>
   <g id="legend_1">
    <g id="LineCollection_7">
     <path d="M 57.132099 138.682194 
L 57.132099 131.742194 
" style="fill: none; stroke: #5b3495; stroke-width: 1.2"/>
    </g>
    <g id="line2d_17"/>
    <g id="line2d_18">
     <g>
      <use xlink:href="#ma8bb78cec9" x="57.132099" y="135.212194" style="fill: #5b3495"/>
     </g>
    </g>
    <g id="text_12">
     <text style="font-size: 6.94px; font-family: 'Liberation Sans', 'NewComputerModernSans10', sans-serif, 'NewComputerModernMath', serif; text-anchor: start; fill: #262626" x="69.624099" y="137.641194" transform="rotate(-0 69.624099 137.641194)">Pearson (linear)</text>
    </g>
    <g id="LineCollection_8">
     <path d="M 57.132099 148.621575 
L 57.132099 141.681575 
" style="fill: none; stroke: #5b3495; stroke-width: 1.2"/>
    </g>
    <g id="line2d_19"/>
    <g id="line2d_20">
     <g>
      <use xlink:href="#mf6c477183e" x="57.132099" y="145.151575" style="fill-opacity: 0; stroke: #5b3495"/>
     </g>
    </g>
    <g id="text_13">
     <text style="font-size: 6.94px; font-family: 'Liberation Sans', 'NewComputerModernSans10', sans-serif, 'NewComputerModernMath', serif; text-anchor: start; fill: #262626" x="69.624099" y="147.580575" transform="rotate(-0 69.624099 147.580575)">Spearman (rank-order)</text>
    </g>
   </g>
  </g>
 </g>
 <defs>
  <clipPath id="pd5471b9ba8">
   <rect x="44.681875" y="10.388625" width="101.028994" height="155.288"/>
  </clipPath>
 </defs>
</svg>
